# xmcd
#
# Track frame offsets:
#	150
#	13260
#	28662
#	43160
#	56225
#	70225
#	86082
#	100785
#	112387
#	127952
#	140492
#	153862
#	168222
#
# Disc length: 2422 seconds
#
# Revision: 3
# Processed by: cddbd v1.5.2PL0 Copyright (c) Steve Scherf et al.
# Submitted via: SMTP 1.0
#
DISCID=b509740d
DTITLE=Various Artist - The Blues [CD2]
DYEAR=1994
DGENRE=blues
TTITLE0=Robert Johnson - Preachin' Blues
TTITLE1=Missippi John Hurt - Frankie
TTITLE2=Petie Wheatsraw - Don't Feel Welcome Blues
TTITLE3=Big Bill Broonzy - How Do You Want It Done
TTITLE4=Texas Alexander - Levee Camp Moan
TTITLE5=Memphis Minnie - Crazy Cryin' Blues
TTITLE6=Blind Blake and Charlie Spand - Hastings Street
TTITLE7=Memphis Jug Band - K.C. Moan
TTITLE8=Bessie Tucker - Fryin' Pan Skillet Blues
TTITLE9=Elmore James - I Believe I'll Dust By Broom
TTITLE10=St. Louis Jimmy Oden - Florida Hurricane
TTITLE11=Leroy Carr - Midnight Hour Blues
TTITLE12=Robert Wilkins - That Ain't No Way To Get Along
EXTD=
EXTT0=
EXTT1=
EXTT2=
EXTT3=
EXTT4=
EXTT5=
EXTT6=
EXTT7=
EXTT8=
EXTT9=
EXTT10=
EXTT11=
EXTT12=
PLAYORDER=
